Your rating:
-/10
Ratings: 5.9/10 from 271 users
Reviews: 7 user | 3 critic

After twenty years in prison, Foley is finished with the grifter's life. When he meets an elusive young woman named Iris, the possibility of a new start looks real. But his past is proving to be a stubborn companion.

Director:
David Weaver
Writers:
Elan Mastai (screenplay), David Weaver (screenplay)
Stars:
Samuel L. Jackson, Luke Kirby and Ruth Negga

Format : AVI
Format/Info : Audio Video Interleave
File size : 1.42 GiB
Duration : 1h 29mn
Overall bit rate : 2 277 Kbps
Writing library : VirtualDub build 32842/release

Video

ID : 0
Format : MPEG-4 Visual
Format profile : Advanced Simple@L5
Format settings, BVOP : 2
Format settings, QPel : No
Format settings, GMC : No warppoints
Format settings, Matrix : Default (H.263)
Muxing mode : Packed bitstream
Codec ID : XVID
Codec ID/Hint : XviD
Duration : 1h 29mn
Bit rate : 1 820 Kbps
Width : 720 pixels
Height : 400 pixels
Display aspect ratio : 16:9
Frame rate : 25.000 fps
Color space : YUV
Chroma subsampling : 4:2:0
Bit depth : 8 bits
Scan type : Progressive
Compression mode : Lossy
Bits/(Pixel*Frame) : 0.253
Stream size : 1.13 GiB (80%)
Writing library : XviD 64

Audio

ID : 1
Format : AC-3
Format/Info : Audio Coding 3
Mode extension : CM (complete main)
Format settings, Endianness : Big
Codec ID : 2000
Duration : 1h 29mn
Bit rate mode : Constant
Bit rate : 448 Kbps
Channel(s) : 6 channels
Channel positions : Front: L C R, Side: L R, LFE
Sampling rate : 48.0 KHz
Bit depth : 16 bits
Compression mode : Lossy
Stream size : 286 MiB (20%)
Alignment : Aligned on interleaves
Interleave, duration : 40 ms (1.00 video frame)
Interleave, preload duration : 512 ms

Source Used
LEGEND PAL DVDR ....Thanks

hxxp://img35.imageshack.us/img35/5915/vlcsnap2012041208h10m35.png
hxxp://img7.imageshack.us/img7/5854/vlcsnap2012041208h11m02.png
hxxp://img3.imageshack.us/img3/1600/vlcsnap2012041208h11m19.png
hxxp://img404.imageshack.us/img404/5638/vlcsnap2012041208h11m36.png

HAVE FUN!!!
